<svg width="1028" height="301" viewBox="0 0 1028 301" fill="none" xmlns="http://www.w3.org/2000/svg">
<g clip-path="url(#clip0_1724_31859)">
<path d="M208.257 193.867C214.261 193 220.139 191.328 225.846 189.381C220.181 191.307 214.219 193 208.257 193.867Z" fill="#179BC6"/>
<path d="M205.986 194.142C206.559 194.079 207.132 194.015 207.726 193.931C207.153 194.015 206.58 194.079 205.986 194.142Z" fill="#179BC6"/>
<path d="M269.132 187.435C268.686 186.948 268.198 186.504 267.667 186.059C255.488 176.008 238.408 185.107 225.868 189.381C220.139 191.328 214.261 193 208.278 193.867C208.108 193.888 207.917 193.931 207.747 193.952C207.174 194.037 206.602 194.1 206.007 194.163C205.604 194.206 205.222 194.248 204.819 194.29C204.628 194.29 204.437 194.333 204.246 194.354C198.411 194.819 192.916 196.364 187.463 193.317C186.572 192.809 185.723 192.238 184.938 191.624C184.683 191.497 184.471 191.307 184.344 191.095C182.243 189.339 180.439 187.223 178.869 184.959C176.238 181.171 174.138 176.749 174.414 172.136C174.838 164.772 181.097 159.144 187.399 155.293C196.141 149.96 205.88 146.363 214.495 140.819C219.439 137.645 224.085 133.604 227.438 128.822C229.602 111.936 224.446 71.3724 183.368 60.8347C175.814 58.9092 168.048 58.1051 160.261 57.8935C152.431 57.6819 144.432 57.8089 137.027 60.3481C117.952 66.9288 107.661 87.9618 104.966 107.916C103.036 122.262 103.927 136.841 103.545 151.315C103.396 156.964 103.057 162.593 102.272 168.179C100.341 181.891 95.7577 195.052 93.4661 208.7C91.2806 221.693 89.7105 234.917 88.9466 248.142C88.395 257.834 89.3498 268.054 94.6756 276.201C98.028 281.321 102.908 285.278 107.979 288.706C110.907 290.674 113.963 292.515 117.23 293.911C122.429 296.133 128.073 297.128 133.696 297.741C141.928 298.63 150.225 298.694 158.479 297.932C166.329 297.212 174.456 295.498 181.713 294.123C188.545 292.832 192.64 291.986 198.305 289.362C203.143 287.14 211.27 284.178 213.519 278.803C204.84 276.624 196.608 273.196 191.112 266.382C181.628 254.596 185.447 234.664 198.623 227.215C218.335 216.085 247.213 232.188 264.294 217.334C272.314 210.351 277.088 195.941 269.153 187.456L269.132 187.435Z" fill="#179BC6"/>
<path d="M380.06 182.102C377.472 168.137 375.18 153.071 374.48 136.862C374.225 130.98 374.183 124.949 374.416 118.749C377.344 43.7585 332.425 -1.05823 278.659 -0.000230329C262.278 0.317169 246.81 9.60638 239.426 24.2067C232.042 38.8071 231.257 55.7562 231.512 72.0916C231.703 84.3644 232.297 96.6372 232.573 108.952C232.636 111.618 232.7 114.306 232.297 116.951C231.66 121.267 229.899 125.224 227.395 128.779C224.043 133.561 219.396 137.603 214.452 140.777C205.838 146.321 196.099 149.918 187.357 155.25C181.055 159.101 174.817 164.751 174.371 172.093C174.095 176.685 176.217 181.108 178.827 184.916C180.397 187.18 182.201 189.296 184.301 191.053C184.513 191.222 184.683 191.412 184.895 191.582C185.702 192.217 186.529 192.788 187.42 193.275C192.873 196.343 198.369 194.777 204.204 194.311C204.395 194.311 204.586 194.269 204.777 194.248C205.18 194.206 205.562 194.163 205.965 194.121C206.538 194.057 207.111 193.994 207.705 193.909C207.875 193.888 208.066 193.867 208.235 193.825C214.198 192.957 220.16 191.264 225.825 189.339C238.386 185.064 255.446 175.966 267.625 186.017C268.155 186.461 268.644 186.927 269.089 187.392C277.046 195.877 272.272 210.287 264.23 217.27C247.149 232.124 218.272 216.021 198.56 227.152C185.383 234.6 181.543 254.533 191.049 266.319C196.544 273.132 204.777 276.56 213.455 278.739C217.083 279.649 220.796 280.348 224.425 280.982C240.763 283.818 261.302 286.886 273.566 288.748C285.809 290.61 339.873 316.87 374.522 281.258C398.414 256.691 387.89 224.358 380.018 182.039L380.06 182.102Z" fill="#F37C0E"/>
<path d="M440.49 122.177C435.397 114.242 429.605 105.461 421.945 101.842C416.683 99.3668 407.517 97.145 402.297 101.504C397.077 105.863 394.616 111.809 399.836 119.342C405.055 126.875 414.922 118.263 416.471 118.982C414.603 129.689 413.033 148.796 409.766 150.426C407.856 151.378 391.645 142.448 374.48 136.841C375.159 153.05 377.45 168.115 380.06 182.081C386.15 183.477 393.067 184.62 401.83 185.678C427.589 188.831 425.764 181.023 437.349 174.125C452.881 164.857 448.68 134.937 440.49 122.177Z" fill="#179BC6"/>
<path d="M102.229 168.158C103.014 162.572 103.354 156.943 103.502 151.293C101.359 153.875 99.4496 156.647 97.731 159.504C90.5592 155.187 88.6496 155.166 80.3533 154.023C72.057 152.859 56.4828 156.816 52.4938 164.138C54.9551 150.786 53.0879 138.322 50.7751 124.949C52.706 124.061 71.0385 134.641 79.9289 120.421C89.0103 105.863 93.3812 91.9187 82.9419 85.7612C68.2589 77.0856 58.4137 79.2227 51.8572 82.3121C42.2878 86.8403 24.316 112.677 17.9506 122.579C7.72341 138.534 -10.9486 191.328 8.44483 202.903C22.9368 211.536 44.0702 217.672 60.9174 218.836C73.0966 219.682 83.0692 220.317 92.1082 220.233C92.2355 217.968 92.4264 215.725 92.7235 213.461C94.6119 198.142 100.065 183.457 102.229 168.158Z" fill="#F37C0E"/>
<path d="M266.225 59.6709C265.609 59.0573 264.739 58.6552 263.891 58.761C263.678 58.7822 263.445 58.8457 263.275 58.9938C262.915 59.29 262.957 59.819 262.936 60.2845C262.766 63.522 263.869 69.1506 265.079 69.8065C266.288 70.4625 267.264 69.8911 267.816 69.1505C268.898 67.6905 268.601 64.5377 267.54 61.8715C267.222 61.0675 266.819 60.2845 266.203 59.6709H266.225Z" fill="#3A3937"/>
<path d="M280.25 59.6709C279.635 59.0573 278.765 58.6552 277.916 58.761C277.704 58.7822 277.47 58.8457 277.301 58.9938C276.94 59.29 276.982 59.819 276.961 60.2845C276.791 63.522 277.895 69.1506 279.104 69.8065C280.313 70.4625 281.29 69.8911 281.841 69.1505C282.923 67.6905 282.626 64.5377 281.565 61.8715C281.247 61.0675 280.844 60.2845 280.229 59.6709H280.25Z" fill="#3A3937"/>
<path d="M526.826 258.278H514.562C513.438 258.278 512.398 258.723 511.592 259.548C510.785 260.373 510.361 261.41 510.361 262.531C510.361 263.653 510.785 264.69 511.592 265.515C512.398 266.34 513.438 266.785 514.562 266.785H523.177V275.566C520.27 277.005 517.172 277.724 513.947 277.724C510.722 277.724 508.154 277.068 505.842 275.756C503.529 274.444 501.789 272.646 500.558 270.234C499.328 267.864 498.691 265.134 498.691 262.172C498.691 258.998 499.328 256.183 500.601 253.792C501.853 251.444 503.571 249.687 505.863 248.46C508.282 247.233 510.913 246.598 513.671 246.598C515.75 246.598 517.703 246.873 519.485 247.423C521.31 247.973 523.177 248.82 525.044 249.92L525.235 250.026C527.399 250.936 529.076 250.428 530.264 249.179C531.028 248.354 531.452 247.339 531.452 246.217C531.452 245.434 531.261 244.694 530.879 244.016C530.476 243.318 529.967 242.789 529.33 242.472C526.826 240.906 524.301 239.721 521.776 238.938C519.209 238.134 516.281 237.732 513.056 237.732C508.77 237.732 504.802 238.769 501.237 240.821C497.673 242.874 494.851 245.794 492.814 249.497C490.777 253.179 489.758 257.432 489.758 262.172C489.758 266.911 490.734 270.995 492.686 274.656C494.638 278.338 497.46 281.279 501.067 283.353C504.568 285.426 508.685 286.484 513.268 286.484C518.254 286.484 523.283 285.236 528.206 282.781C529.266 282.274 530.115 281.512 530.688 280.56C531.24 279.629 531.537 278.549 531.537 277.386V263.018C531.537 261.77 531.07 260.627 530.179 259.717C529.288 258.807 528.142 258.321 526.89 258.321L526.826 258.278Z" fill="#3A3937"/>
<path d="M568.393 251.232C567.502 252.1 567.056 253.2 567.056 254.427V272.857C565.719 274.487 564.361 275.735 563.046 276.582C561.688 277.428 560.224 277.851 558.526 277.851C555.959 277.851 553.328 277.132 553.328 271.778V254.427C553.328 253.221 552.882 252.121 552.034 251.253C550.336 249.518 547.45 249.518 545.711 251.232C544.819 252.1 544.353 253.2 544.353 254.427V272.413C544.353 274.974 544.862 277.322 545.88 279.438C546.92 281.597 548.405 283.31 550.294 284.559H550.315C552.309 285.829 554.601 286.463 557.126 286.463C559.651 286.463 562.049 285.913 564.086 284.813C565.125 284.263 566.165 283.564 567.183 282.739C567.374 283.501 567.777 284.199 568.35 284.792C570.111 286.59 573.018 286.569 574.716 284.792C575.543 283.903 575.989 282.803 575.989 281.618V254.47C575.989 253.263 575.543 252.163 574.695 251.296C572.997 249.56 570.111 249.56 568.372 251.274L568.393 251.232Z" fill="#3A3937"/>
<path d="M611.147 251.592C608.877 250.28 606.14 249.603 603 249.603C599.117 249.603 595.276 250.407 591.627 251.994C589.908 252.713 588.974 254.11 588.974 255.929C588.974 257.009 589.378 258.003 590.141 258.786C590.905 259.569 591.881 259.992 592.921 259.992L593.982 259.844L594.237 259.78C595.786 259.251 597.143 258.892 598.268 258.659C599.371 258.447 600.623 258.342 602.002 258.342C604.464 258.342 606.225 258.828 607.222 259.759C608.028 260.521 608.495 261.748 608.644 263.378H602.809C597.929 263.378 594.046 264.372 591.266 266.361C588.338 268.456 586.831 271.461 586.831 275.27C586.831 277.449 587.362 279.438 588.444 281.173C589.505 282.908 591.011 284.241 592.9 285.13C594.682 285.998 596.613 286.421 598.629 286.421C602.639 286.421 606.098 285.384 608.983 283.31C609.195 283.839 609.535 284.347 609.959 284.77C611.657 286.505 614.542 286.505 616.282 284.791C617.173 283.924 617.619 282.824 617.619 281.596V263.674C617.619 261.156 617.089 258.807 616.028 256.712C614.946 254.575 613.291 252.84 611.126 251.528L611.147 251.592ZM608.686 271.334V274.381C607.689 275.418 606.543 276.285 605.228 276.962C603.785 277.703 602.278 278.084 600.772 278.084C595.828 278.084 595.828 275.777 595.828 274.677C595.828 272.455 598.438 271.334 603.573 271.334H608.707H608.686Z" fill="#3A3937"/>
<path d="M656.003 251.486C654.008 250.237 651.695 249.603 649.128 249.603C646.561 249.603 644.205 250.153 642.147 251.253C641.108 251.803 640.068 252.501 639.049 253.327C638.858 252.565 638.455 251.867 637.882 251.274C636.121 249.476 633.214 249.497 631.517 251.274C630.689 252.163 630.244 253.263 630.244 254.448V281.596C630.244 282.802 630.689 283.903 631.538 284.77C633.236 286.505 636.121 286.505 637.861 284.77C638.752 283.903 639.198 282.802 639.198 281.575V263.145C640.556 261.516 641.893 260.267 643.229 259.421C644.587 258.574 646.051 258.151 647.749 258.151C650.316 258.151 652.947 258.871 652.947 264.224V281.575C652.947 282.802 653.393 283.882 654.242 284.749C655.09 285.617 656.194 286.082 657.403 286.082C658.613 286.082 659.695 285.638 660.565 284.77C661.456 283.903 661.901 282.802 661.901 281.575V263.589C661.901 261.05 661.392 258.701 660.416 256.585C659.398 254.427 657.934 252.692 656.003 251.422V251.486Z" fill="#3A3937"/>
<path d="M699.521 251.295C699.139 251.697 698.842 252.142 698.63 252.628C695.935 250.618 692.795 249.603 689.252 249.603C686.451 249.603 683.756 250.301 681.231 251.697C678.685 253.094 676.606 255.146 674.993 257.791C673.359 260.563 672.532 263.885 672.532 267.715C672.532 271.545 673.338 274.656 674.929 277.407C676.521 280.157 678.706 282.295 681.358 283.733C683.841 285.13 686.493 285.849 689.23 285.849C692.604 285.849 695.617 284.918 698.206 283.099V283.628C698.206 289.616 695.787 292.303 690.334 292.303C687.003 292.303 683.777 291.542 680.679 290.018C678.77 289.235 677.136 289.701 675.969 290.991C675.205 291.817 674.802 292.832 674.802 293.89C674.802 295.456 675.46 296.705 676.775 297.551C678.515 298.545 680.701 299.392 683.289 300.048C685.878 300.704 688.424 301.042 690.864 301.042C696.041 301.042 700.115 299.392 702.937 296.154C705.717 292.98 707.117 288.494 707.117 282.802V254.512C707.117 253.306 706.651 252.205 705.802 251.316C704.041 249.518 701.134 249.539 699.436 251.316L699.521 251.295ZM698.248 273.577C697.039 274.762 695.829 275.672 694.641 276.285C693.41 276.941 691.989 277.28 690.44 277.28C687.66 277.28 685.538 276.476 683.926 274.846C682.313 273.196 681.528 270.868 681.528 267.737C681.528 264.605 682.313 262.256 683.947 260.627C685.56 258.998 687.682 258.193 690.461 258.193C692.01 258.193 693.432 258.532 694.662 259.167C695.829 259.78 697.039 260.69 698.269 261.875V273.598L698.248 273.577Z" fill="#3A3937"/>
<path d="M749.257 238.346H725.068C723.837 238.346 722.755 238.832 721.885 239.721C721.058 240.61 720.612 241.71 720.612 242.895V281.639C720.612 282.845 721.058 283.945 721.906 284.813C722.755 285.68 723.859 286.146 725.068 286.146C726.277 286.146 727.359 285.702 728.229 284.834C729.121 283.967 729.566 282.866 729.566 281.639V266.383H747.071C748.217 266.383 749.278 265.959 750.105 265.134C750.954 264.309 751.4 263.251 751.4 262.066C751.4 260.881 750.954 259.844 750.127 258.998C749.299 258.151 748.238 257.707 747.071 257.707H729.566V247.021H749.257C750.402 247.021 751.463 246.598 752.312 245.773C753.14 244.948 753.585 243.89 753.585 242.705C753.585 241.52 753.14 240.483 752.312 239.636C751.463 238.79 750.424 238.346 749.257 238.346Z" fill="#3A3937"/>
<path d="M785.243 251.232C784.352 252.1 783.906 253.2 783.906 254.427V272.857C782.569 274.487 781.211 275.735 779.896 276.582C778.538 277.428 777.074 277.851 775.376 277.851C772.809 277.851 770.178 277.132 770.178 271.778V254.427C770.178 253.221 769.732 252.121 768.883 251.253C767.186 249.518 764.3 249.518 762.561 251.232C761.669 252.1 761.203 253.2 761.203 254.427V272.413C761.203 274.974 761.712 277.322 762.73 279.438C763.77 281.597 765.255 283.31 767.144 284.559H767.165C769.159 285.829 771.451 286.463 773.976 286.463C776.501 286.463 778.898 285.913 780.935 284.813C781.975 284.263 783.015 283.564 784.033 282.739C784.224 283.501 784.627 284.199 785.2 284.792C786.961 286.59 789.868 286.569 791.566 284.792C792.393 283.903 792.839 282.803 792.839 281.618V254.47C792.839 253.263 792.393 252.163 791.544 251.296C789.847 249.56 786.961 249.56 785.222 251.274L785.243 251.232Z" fill="#3A3937"/>
<path d="M862.413 239.404C861.586 240.292 861.14 241.372 861.14 242.578V257.771H840.877V242.578C840.877 241.372 840.41 240.271 839.561 239.383C837.8 237.584 834.914 237.605 833.196 239.404C832.368 240.292 831.923 241.393 831.923 242.578V281.639C831.923 282.845 832.368 283.945 833.217 284.813C834.914 286.548 837.8 286.548 839.54 284.813C840.431 283.945 840.877 282.845 840.877 281.618V266.425H861.14V281.618C861.14 282.824 861.586 283.924 862.434 284.792C863.283 285.659 864.387 286.125 865.596 286.125C866.805 286.125 867.888 285.68 868.758 284.813C869.649 283.945 870.094 282.845 870.094 281.618V242.557C870.094 241.35 869.627 240.25 868.779 239.361C867.018 237.563 864.132 237.584 862.413 239.383V239.404Z" fill="#3A3937"/>
<path d="M913.04 270.36C913.846 269.493 914.292 268.414 914.292 267.208C914.292 264.034 913.634 261.071 912.318 258.426C911.003 255.76 909.115 253.602 906.696 251.994C904.171 250.407 901.179 249.603 897.826 249.603C894.474 249.603 891.27 250.47 888.724 252.142C886.178 253.835 884.268 256.183 883.037 259.125C881.892 261.96 881.297 264.943 881.297 268.012C881.297 273.725 882.889 278.274 886.008 281.512C889.148 284.77 893.54 286.421 899.057 286.421C901.603 286.421 903.661 286.188 905.401 285.701C907.099 285.236 908.881 284.474 910.727 283.437C912.785 282.273 913.21 280.729 913.21 279.65C913.21 278.507 912.764 277.47 911.937 276.687C911.13 275.925 910.133 275.523 909.072 275.523C908.329 275.523 907.693 275.672 907.226 275.947C906.017 276.56 904.807 277.026 903.619 277.301C902.431 277.576 901.073 277.724 899.545 277.724C896.808 277.724 894.623 277.047 893.095 275.735C891.928 274.741 891.122 273.386 890.655 271.651H909.751C911.045 271.651 912.191 271.186 913.019 270.297L913.04 270.36ZM905.189 263.716H890.57C890.782 262.764 891.122 261.918 891.567 261.156C892.267 259.992 893.18 259.146 894.283 258.596C896.872 257.474 899.142 257.538 901.306 258.617C902.41 259.167 903.322 259.992 904.128 261.177C904.637 261.875 904.998 262.722 905.189 263.716Z" fill="#3A3937"/>
<path d="M942.194 249.603H941.875C938.862 249.603 936.062 250.767 933.537 253.073C933.325 252.417 932.943 251.803 932.433 251.274C930.672 249.476 927.765 249.497 926.068 251.296C925.24 252.184 924.795 253.285 924.795 254.469V281.618C924.795 282.824 925.24 283.924 926.089 284.792C926.938 285.659 928.041 286.125 929.251 286.125C930.46 286.125 931.542 285.68 932.412 284.813C933.303 283.945 933.749 282.845 933.749 281.618V262.87C934.704 261.495 935.849 260.437 937.165 259.675C938.565 258.871 940.072 258.469 941.748 258.469H942.066C943.297 258.469 944.4 258.046 945.249 257.241C946.119 256.416 946.586 255.337 946.586 254.089C946.586 252.84 946.162 251.803 945.355 250.936C944.528 250.047 943.424 249.582 942.194 249.582V249.603Z" fill="#3A3937"/>
<path d="M985.139 258.532C983.675 255.718 981.575 253.496 978.859 251.909C976.206 250.385 973.151 249.603 969.735 249.603C966.319 249.603 963.221 250.385 960.569 251.909C957.895 253.454 955.795 255.675 954.309 258.511C952.866 261.304 952.145 264.499 952.145 268.033C952.145 271.567 952.866 274.698 954.309 277.491C955.773 280.327 957.853 282.549 960.505 284.136H960.526C963.2 285.68 966.297 286.442 969.714 286.442C973.13 286.442 976.143 285.659 978.816 284.136C981.511 282.591 983.633 280.348 985.118 277.491C986.561 274.741 987.282 271.567 987.282 268.012C987.282 264.457 986.561 261.283 985.118 258.511L985.139 258.532ZM978.328 267.969C978.328 270.212 977.904 272.138 977.098 273.64C976.291 275.121 975.252 276.179 973.915 276.878C971.05 278.338 967.889 278.211 965.449 276.835C964.197 276.137 963.2 275.1 962.393 273.661C961.545 272.286 961.12 270.36 961.12 267.969C961.12 265.726 961.545 263.822 962.351 262.341C963.157 260.881 964.197 259.823 965.512 259.146C966.87 258.49 968.25 258.172 969.735 258.172C971.326 258.172 972.769 258.532 974.021 259.23C975.294 259.929 976.291 260.944 977.076 262.341C977.925 263.716 978.349 265.621 978.349 267.969H978.328Z" fill="#3A3937"/>
<path d="M544.692 91.2417L513.692 91.1147L514.647 134.704L471.553 134.344V161.556L492.962 160.794L471.023 195.793L499.901 212.573L519.994 160.371H527.145V211.853H585.198L587.341 171.544L560.521 170.316L560.033 186.715L555.195 186.948V160.117L586.81 160.604V133.392L544.204 134.471L544.692 91.2417Z" fill="#F37C0E"/>
<path d="M561.964 92.3208L552.67 123.616L572.934 130.874L588.041 102.858L561.964 92.3208Z" fill="#F37C0E"/>
<path d="M504.866 124.124L496.166 93.2095L470.428 104.297L484.942 131.467L504.866 124.124Z" fill="#F37C0E"/>
<path d="M632.09 91.5166L615.985 113.861L627.167 130.557L657.042 103.345L632.09 91.5166Z" fill="#F37C0E"/>
<path d="M731.603 178.738V165.047H681.634L686.451 160.625H731.858V118.432H680.404L682.334 113.65L734.828 114.137V95.0292L688.551 95.5158L690.27 92.2784L659.589 91.2627L657.361 103.493L657.276 103.451L650.719 126.557L640.004 123.426L616.24 153.621L618.086 191.688L622.266 184.578L621.735 211.938H649.489L649.043 198.946L651.144 198.692L653.796 211.79L694.599 205.717H694.768L732.813 211.768L735.401 191.265L720.952 190.207L731.582 178.696L731.603 178.738ZM684.838 131.615H705.335V135.423H684.838V131.615ZM684.838 144.84H705.335V148.775H684.838V144.84ZM658.103 145.982V160.625H663.387L648.682 172.432L648.088 160.032L658.103 145.982ZM663.005 192.513L663.153 192.323H662.962L649.086 193.381L648.491 175.119L664.172 191.095L668.246 186.207L671.577 191.54L662.983 192.513H663.005ZM693.495 185.721L688.382 180.515H701.728L693.495 185.721Z" fill="#F37C0E"/>
<path d="M817.537 176.432L824.687 176.918V155.399L817.537 155.885V149.855L825.281 150.342V128.441L834.384 146.448H829.313V185.594H884.926V146.448H844.251L852.738 124.484L854.52 142.174L884.862 142.745L886.453 93.0405H828.613V114.708H834.087L826.618 127.129L810.259 127.658V121.099L823.987 121.585V98.9018L810.195 99.3884L810.683 91.2207H783.821L784.309 99.3884L770.284 98.9018V121.585L784.245 121.099V127.658L767.78 127.171V150.384L793.306 149.897V187.16L787.683 186.948L788.998 154.976L770.454 153.558L766.656 209.759L786.198 212.171L786.558 209.23L787.534 209.272L885.944 213.123L886.602 189.043L817.558 187.583V176.432H817.537ZM852.971 163.038H861.289V168.433H852.971V163.038ZM856.79 114.729H864.132L862.901 121.395L854.138 120.887L856.812 114.729H856.79Z" fill="#179BC6"/>
<path d="M984.439 143.38L984.906 91.4746H951.975L952.463 143.38L909.857 191.053L934.873 211.748L968.929 166.592L1002.98 211.748L1028 191.053L984.439 143.38Z" fill="#179BC6"/>
<path d="M170.934 96.8912C171.676 98.4994 172.949 99.8959 174.817 100.023C176.217 100.108 177.554 99.4516 178.7 98.711C180.482 97.5472 178.827 94.6906 177.023 95.8544C176.493 96.2141 175.771 96.6796 175.22 96.7219C174.498 96.7854 174.116 95.9178 173.798 95.2196C173.416 94.3943 172.249 94.2251 171.528 94.6271C170.679 95.1138 170.573 96.0871 170.934 96.8912Z" fill="#3A3937"/>
<path d="M182.01 100.764C182.752 102.372 184.025 103.768 185.893 103.895C187.293 103.98 188.63 103.324 189.775 102.584C191.558 101.42 189.903 98.5631 188.099 99.7269C187.569 100.087 186.847 100.552 186.296 100.594C185.574 100.658 185.192 99.7904 184.874 99.0921C184.492 98.2669 183.325 98.0976 182.604 98.4997C181.755 98.9863 181.649 99.9597 182.01 100.764Z" fill="#3A3937"/>
</g>
<defs>
<clipPath id="clip0_1724_31859">
<rect width="1028" height="301" fill="white"/>
</clipPath>
</defs>
</svg>
